# xmcd
#
# Track frame offsets:
#	150
#	20182
#	37702
#	62662
#	85622
#	108911
#	133727
#	156402
#	178627
#	202887
#
# Disc length: 2946 seconds
#
# Revision: 0
# Processed by: cddbd v1.5.2PL0 Copyright (c) Steve Scherf et al.
# Submitted via: EasyCDDAExtractor 15.3.0.1
#
DISCID=7b0b800a
DTITLE=Various Artist - BTC - Chi Con La Ky Niem
DYEAR=2000
DGENRE=
TTITLE0=Phuong Thanh - Khi Ta Yeu Nhau
TTITLE1=Minh Thuan - Tieng Mua
TTITLE2=To Nhu - Chi Con La Ky Niem
TTITLE3=Minh Thuan - Chieu Roi
TTITLE4=Phuong Thanh - Tinh La Giac Mo
TTITLE5=Minh Thuan - Mai Con Trong Tim
TTITLE6=Phuong Thanh - Cho Em Loi Cuoi
TTITLE7=Truong Huy and To Nhu - Ky Niem Chieu Tim
TTITLE8=Phuong Thanh - Mua Mot Minh
TTITLE9=Truong Huy - Mua Tinh Yeu
EXTD=
EXTT0=
EXTT1=
EXTT2=
EXTT3=
EXTT4=
EXTT5=
EXTT6=
EXTT7=
EXTT8=
EXTT9=
PLAYORDER=
